# Blender 3.5.1
# www.blender.org
mtllib canesfry-simp4.mtl
o Cube
v -2.002102 1.376308 0.260171
v -2.254567 0.908930 -0.274552
v 1.703213 1.237201 -0.245036
v 1.896052 0.783878 -0.211450
v 1.797018 0.633335 -0.256327
v 1.525530 0.509637 -0.209940
v 1.415354 0.372820 -0.250855
v 1.120305 0.304565 -0.207899
v 0.964345 0.164108 -0.241533
v 0.670044 0.152918 -0.201378
v 0.487424 0.058857 -0.239527
v 0.182718 0.084252 -0.194745
v 0.030499 0.031481 -0.236828
v -0.289148 0.110488 -0.198996
v -0.433619 0.089132 -0.247926
v -0.742977 0.211336 -0.206505
v -0.868848 0.190288 -0.251101
v -1.233152 0.353470 -0.230194
v -1.650255 0.541222 -0.229007
v -2.043380 0.779390 -0.204011
v -2.011297 1.382568 -0.261528
v -1.668421 1.139345 -0.228590
v -1.325095 0.932836 -0.230392
v -0.954566 0.770113 -0.229783
v -0.622491 0.630119 -0.208314
v -0.492577 0.657783 -0.246348
v -0.223443 0.558624 -0.202852
v -0.099545 0.613173 -0.235068
v 0.161896 0.552116 -0.196044
v 0.317826 0.614339 -0.238809
v 0.550199 0.588046 -0.202576
v 0.670003 0.668509 -0.246223
v 0.915716 0.697212 -0.202619
v 1.027168 0.785515 -0.252217
v 1.274725 0.848369 -0.210071
v 1.508101 1.041089 -0.231013
v -2.245969 0.901101 0.273223
v -2.039117 0.779565 0.205013
v -1.645830 0.540839 0.229824
v -1.306556 0.348398 0.253217
v -1.172022 0.353472 0.208542
v -0.873541 0.196728 0.252445
v -0.741021 0.208816 0.206120
v -0.418987 0.086773 0.247781
v -0.295399 0.110654 0.198794
v 0.043031 0.031533 0.236976
v 0.190632 0.086002 0.195460
v 0.481784 0.055300 0.237990
v 0.668675 0.146756 0.199134
v 0.963653 0.172596 0.245194
v 1.124742 0.300898 0.206456
v 1.407886 0.377398 0.253257
v 1.528560 0.515739 0.210718
v 1.802124 0.628027 0.255473
v 1.898180 0.781260 0.211166
v 1.510651 1.041490 0.231251
v 1.268784 0.851860 0.208779
v 1.026381 0.780045 0.254188
v 0.911372 0.689218 0.205127
v 0.673294 0.677811 0.243290
v 0.557967 0.591488 0.201747
v 0.302610 0.610283 0.240195
v 0.164132 0.552338 0.195938
v -0.109439 0.612920 0.235233
v -0.218607 0.558113 0.202764
v -0.511171 0.660995 0.246440
v -0.615806 0.628626 0.208343
v -0.959784 0.770095 0.230456
v -1.323578 0.934855 0.230659
v -1.667112 1.140842 0.229452
v 2.192574 0.964150 -0.253434
v 2.186527 0.964757 0.254452
v 1.703665 1.237711 0.244817
vn 0.1675 0.1788 -0.9695
vn -0.0642 -0.0013 -0.9979
vn -0.0032 -0.0009 -1.0000
vn -0.0438 0.0302 -0.9986
vn 0.1679 0.1752 0.9701
vn -0.1365 0.0175 0.9905
vn -0.0478 0.0370 0.9982
vn -0.0640 -0.0017 0.9980
vn 0.0360 -0.9993 -0.0050
vn 0.1155 -0.0985 0.9884
vn -0.1056 -0.0429 -0.9935
vn -0.7109 0.7033 0.0016
vn -0.6268 0.7791 -0.0059
vn -0.2650 0.9642 0.0001
vn -0.6204 0.7843 0.0081
vn -0.0826 0.9966 -0.0015
vn -0.5786 0.8156 -0.0045
vn 0.0921 0.9958 0.0015
vn -0.3779 0.9258 -0.0016
vn 0.2217 0.9751 0.0020
vn -0.4248 0.9053 -0.0017
vn 0.3385 0.9410 0.0024
vn -0.2480 0.9688 -0.0051
vn 0.3844 0.9232 0.0009
vn 0.4073 0.9133 -0.0003
vn 0.5148 0.8573 -0.0049
vn -0.8894 0.4566 0.0208
vn 0.5768 0.8169 -0.0022
vn 0.1170 -0.1004 -0.9880
vn 0.1464 0.0142 -0.9891
vn -0.0049 0.0005 -1.0000
vn 0.0016 -0.0001 -1.0000
vn -0.1757 0.0107 -0.9844
vn 0.2174 -0.0036 -0.9761
vn -0.1566 -0.0118 -0.9876
vn 0.1929 0.0282 -0.9808
vn -0.1839 -0.0348 -0.9823
vn 0.1685 0.0488 -0.9845
vn -0.1795 -0.0853 -0.9801
vn 0.1532 0.0858 -0.9845
vn -0.1747 -0.1238 -0.9768
vn 0.1549 0.1298 -0.9794
vn -0.0429 -0.0920 -0.9948
vn -0.0446 -0.0924 0.9947
vn -0.1048 -0.0424 0.9936
vn 0.1572 0.1377 0.9779
vn -0.1785 -0.1338 0.9748
vn 0.1572 0.0922 0.9833
vn -0.1872 -0.0798 0.9791
vn 0.1651 0.0431 0.9853
vn -0.1953 -0.0419 0.9799
vn 0.1888 0.0334 0.9814
vn -0.1566 -0.0137 0.9876
vn 0.2175 0.0008 0.9761
vn -0.1827 0.0052 0.9832
vn 0.1459 0.0140 0.9892
vn 0.0846 -0.0158 0.9963
vn -0.5185 -0.8551 0.0050
vn -0.0032 0.0005 1.0000
vn -0.4479 -0.8933 -0.0380
vn -0.4354 -0.8997 0.0322
vn 0.1272 -0.9919 0.0046
vn -0.3608 -0.9326 0.0016
vn 0.1664 -0.9861 -0.0040
vn -0.2336 -0.9723 0.0019
vn 0.3368 -0.9416 -0.0060
vn -0.0937 -0.9956 -0.0018
vn 0.4487 -0.8937 -0.0063
vn 0.0627 -0.9980 0.0028
vn 0.6466 -0.7628 0.0014
vn 0.2429 -0.9701 0.0018
vn 0.7661 -0.6427 0.0111
vn 0.3973 -0.9177 -0.0027
vn 0.8414 -0.5403 -0.0111
vn 0.5281 -0.8492 0.0004
vn 0.4897 0.8719 0.0018
vn -0.5149 -0.8573 0.0001
vt 0.604388 0.995695
vt 0.625276 0.030405
vt 0.871950 0.719592
vt 0.405196 0.258944
vt 0.129627 0.500218
vt 0.612291 0.498043
vt 0.605703 0.513074
vt 0.405160 0.488836
vt 0.366555 0.503940
vt 0.405579 0.475223
vt 0.355724 0.503285
vt 0.405205 0.465011
vt 0.343221 0.505494
vt 0.405660 0.451486
vt 0.331722 0.507411
vt 0.405328 0.441273
vt 0.320465 0.505296
vt 0.405489 0.427704
vt 0.306383 0.515480
vt 0.405265 0.417517
vt 0.293692 0.511810
vt 0.405124 0.403982
vt 0.282941 0.515499
vt 0.404915 0.393683
vt 0.267257 0.517301
vt 0.404876 0.380869
vt 0.260830 0.517231
vt 0.404533 0.369510
vt 0.244415 0.514387
vt 0.404942 0.357585
vt 0.238808 0.512062
vt 0.404566 0.344766
vt 0.220406 0.510327
vt 0.404979 0.333638
vt 0.214458 0.513210
vt 0.404983 0.315704
vt 0.193221 0.511755
vt 0.405432 0.291714
vt 0.168285 0.513752
vt 0.405854 0.272450
vt 0.145199 0.519138
vt 0.607573 0.240184
vt 0.872567 0.530408
vt 0.607563 0.254063
vt 0.845513 0.529856
vt 0.608558 0.276821
vt 0.821532 0.529879
vt 0.606398 0.301103
vt 0.797376 0.529905
vt 0.605636 0.325406
vt 0.778505 0.529788
vt 0.605662 0.345697
vt 0.769068 0.530098
vt 0.606682 0.352795
vt 0.754968 0.529756
vt 0.608150 0.369039
vt 0.744202 0.530210
vt 0.612415 0.376600
vt 0.731843 0.529746
vt 0.612556 0.392309
vt 0.719161 0.530077
vt 0.611877 0.401547
vt 0.708979 0.529783
vt 0.608693 0.416321
vt 0.695342 0.530037
vt 0.608554 0.426581
vt 0.606358 0.433015
vt 0.685511 0.529798
vt 0.608310 0.439924
vt 0.606018 0.440937
vt 0.671818 0.530241
vt 0.605710 0.451057
vt 0.600890 0.454108
vt 0.661175 0.529737
vt 0.601121 0.463175
vt 0.601187 0.483047
vt 0.604309 0.475149
vt 0.641587 0.529967
vt 0.598199 0.487786
vt 0.405416 0.990450
vt 0.405405 0.030405
vt 0.129821 0.747528
vt 0.405894 0.977572
vt 0.145128 0.731096
vt 0.405501 0.958208
vt 0.166172 0.736508
vt 0.405303 0.939647
vt 0.181972 0.737913
vt 0.404772 0.929419
vt 0.196487 0.739053
vt 0.405033 0.916181
vt 0.205204 0.738707
vt 0.404565 0.905231
vt 0.220374 0.738777
vt 0.404958 0.892326
vt 0.228827 0.737283
vt 0.404527 0.880453
vt 0.244445 0.735538
vt 0.404876 0.869087
vt 0.253459 0.732816
vt 0.404911 0.856346
vt 0.267277 0.733546
vt 0.405131 0.846068
vt 0.275446 0.733597
vt 0.405284 0.832437
vt 0.291550 0.735995
vt 0.405562 0.822546
vt 0.303047 0.737695
vt 0.405353 0.808676
vt 0.315368 0.743249
vt 0.405731 0.798735
vt 0.327195 0.744943
vt 0.405227 0.784940
vt 0.339196 0.746289
vt 0.405613 0.774931
vt 0.351059 0.745574
vt 0.405176 0.761119
vt 0.362968 0.745047
vt 0.641482 0.720034
vt 0.600933 0.766856
vt 0.605957 0.774848
vt 0.661351 0.720260
vt 0.602388 0.786766
vt 0.671819 0.719759
vt 0.598605 0.796108
vt 0.604309 0.798778
vt 0.685537 0.720201
vt 0.602490 0.808977
vt 0.605254 0.810198
vt 0.695295 0.719968
vt 0.609043 0.816036
vt 0.611082 0.823611
vt 0.709393 0.720207
vt 0.610556 0.834000
vt 0.719390 0.719910
vt 0.610675 0.841260
vt 0.732226 0.720255
vt 0.612682 0.857688
vt 0.744620 0.719804
vt 0.612288 0.866677
vt 0.755162 0.720251
vt 0.609110 0.880283
vt 0.769208 0.719920
vt 0.608087 0.891829
vt 0.778580 0.720217
vt 0.606191 0.903889
vt 0.797114 0.720096
vt 0.606407 0.921200
vt 0.821224 0.720129
vt 0.606699 0.945530
vt 0.845268 0.720147
vt 0.608297 0.969623
vt 0.400768 0.506042
vt 0.377377 0.506510
vt 0.380395 0.743191
vt 0.402786 0.743805
vt 0.612256 0.751947
vt 0.605399 0.737038
s 0
usemtl Material.001
f 36/76/1 4/8/1 5/10/1
f 20/40/2 22/46/2 19/38/2
f 19/38/3 23/48/3 18/36/3
f 18/36/4 24/50/4 17/34/4
f 55/117/5 56/120/5 54/115/5
f 68/148/6 41/89/6 42/91/6
f 69/150/7 39/85/7 40/87/7
f 70/152/8 38/83/8 39/85/8
f 18/37/9 41/90/9 40/88/9
f 37/80/10 38/83/10 70/152/10 1/1/10
f 5/10/11 6/12/11 35/75/11 36/77/11
f 73/158/12 3/7/12 36/78/12 56/119/12
f 57/122/13 56/119/13 36/78/13 35/74/13
f 57/122/14 35/74/14 34/71/14 58/124/14
f 58/124/15 34/71/15 33/68/15 59/127/15
f 60/130/16 59/127/16 33/68/16 32/65/16
f 60/130/17 32/65/17 31/63/17 61/133/17
f 61/133/18 31/63/18 30/61/18 62/135/18
f 62/135/19 30/61/19 29/59/19 63/137/19
f 63/137/20 29/59/20 28/57/20 64/139/20
f 64/139/21 28/57/21 27/55/21 65/141/21
f 65/141/22 27/55/22 26/53/22 66/143/22
f 66/143/23 26/53/23 25/51/23 67/145/23
f 67/145/24 25/51/24 24/49/24 68/147/24
f 69/149/25 68/147/25 24/49/25 23/47/25
f 70/151/26 69/149/26 23/47/26 22/45/26
f 2/4/27 37/81/27 1/2/27 21/42/27
f 1/3/28 70/151/28 22/45/28 21/43/28
f 22/46/29 20/40/29 2/4/29 21/44/29
f 25/52/30 16/32/30 17/34/30 24/50/30
f 19/38/31 22/46/31 23/48/31
f 18/36/32 23/48/32 24/50/32
f 26/54/33 15/30/33 16/32/33 25/52/33
f 27/56/34 14/28/34 15/30/34 26/54/34
f 28/58/35 13/26/35 14/28/35 27/56/35
f 29/60/36 12/24/36 13/26/36 28/58/36
f 11/22/37 12/24/37 29/60/37 30/62/37
f 10/20/38 11/22/38 30/62/38 31/64/38
f 9/18/39 10/20/39 31/64/39 32/66/39
f 8/16/40 9/18/40 32/67/40 33/69/40
f 7/14/41 8/16/41 33/70/41 34/72/41
f 6/12/42 7/14/42 34/73/42 35/75/42
f 71/153/43 4/8/43 36/79/43 3/6/43
f 56/120/44 55/117/44 72/156/44 73/157/44
f 57/123/45 53/113/45 54/115/45 56/121/45
f 58/125/46 52/111/46 53/113/46 57/123/46
f 59/128/47 51/109/47 52/111/47 58/126/47
f 60/131/48 50/107/48 51/109/48 59/129/48
f 61/134/49 49/105/49 50/107/49 60/132/49
f 62/136/50 48/103/50 49/105/50 61/134/50
f 63/138/51 47/101/51 48/103/51 62/136/51
f 46/99/52 47/101/52 63/138/52 64/140/52
f 45/97/53 46/99/53 64/140/53 65/142/53
f 44/95/54 45/97/54 65/142/54 66/144/54
f 43/93/55 44/95/55 66/144/55 67/146/55
f 42/91/56 43/93/56 67/146/56 68/148/56
f 40/87/57 41/89/57 68/148/57 69/150/57
f 38/84/58 20/41/58 19/39/58 39/86/58
f 69/150/59 70/152/59 39/85/59
f 40/88/60 39/86/60 19/39/60 18/37/60
f 41/90/61 18/37/61 17/35/61 42/92/61
f 43/94/62 42/92/62 17/35/62 16/33/62
f 43/94/63 16/33/63 15/31/63 44/96/63
f 44/96/64 15/31/64 14/29/64 45/98/64
f 45/98/65 14/29/65 13/27/65 46/100/65
f 46/100/66 13/27/66 12/25/66 47/102/66
f 48/104/67 47/102/67 12/25/67 11/23/67
f 48/104/68 11/23/68 10/21/68 49/106/68
f 49/106/69 10/21/69 9/19/69 50/108/69
f 51/110/70 50/108/70 9/19/70 8/17/70
f 51/110/71 8/17/71 7/15/71 52/112/71
f 53/114/72 52/112/72 7/15/72 6/13/72
f 54/116/73 53/114/73 6/13/73 5/11/73
f 54/116/74 5/11/74 4/9/74 55/118/74
f 55/118/75 4/9/75 71/154/75 72/155/75
f 73/158/76 72/156/76 71/154/76 3/7/76
f 37/82/77 2/5/77 20/41/77 38/84/77
